<svg xmlns="http://www.w3.org/2000/svg" width="1000" height="260" viewBox="0 0 1000 260" font-family="'Courier New',monospace">
<style>
.c { font-size: 15px; fill: #39d353; animation: fall linear infinite; }
@keyframes fall { from { transform: translateY(0); } to { transform: translateY(580px); } }
.cursor { animation: blink 1s step-end infinite; }
@keyframes blink { 50% { opacity: 0; } }
.name { animation: glow 3s ease-in-out infinite; }
@keyframes glow { 0%,100% { opacity: 0.92; } 50% { opacity: 1; } }
</style>
<rect width="1000" height="260" fill="#000000"/>
<text class="c" style="animation-duration:5.4s;animation-delay:-4.0s" opacity="0.59" y="-300"><tspan x="8" dy="18">ク</tspan><tspan x="8" dy="18">イ</tspan><tspan x="8" dy="18">ツ</tspan><tspan x="8" dy="18">タ</tspan><tspan x="8" dy="18">ソ</tspan><tspan x="8" dy="18">ケ</tspan><tspan x="8" dy="18">キ</tspan><tspan x="8" dy="18">9</tspan><tspan x="8" dy="18">カ</tspan><tspan x="8" dy="18">*</tspan><tspan x="8" dy="18">2</tspan><tspan x="8" dy="18">ウ</tspan><tspan x="8" dy="18">イ</tspan><tspan x="8" dy="18">カ</tspan><tspan x="8" dy="18">セ</tspan></text>
<text class="c" style="animation-duration:4.6s;animation-delay:-9.0s" opacity="0.76" y="-300"><tspan x="41" dy="18">9</tspan><tspan x="41" dy="18">1</tspan><tspan x="41" dy="18">ソ</tspan><tspan x="41" dy="18">3</tspan><tspan x="41" dy="18">*</tspan><tspan x="41" dy="18">ツ</tspan><tspan x="41" dy="18">ア</tspan><tspan x="41" dy="18">サ</tspan><tspan x="41" dy="18">2</tspan><tspan x="41" dy="18">ニ</tspan><tspan x="41" dy="18">ツ</tspan><tspan x="41" dy="18">コ</tspan><tspan x="41" dy="18">セ</tspan><tspan x="41" dy="18">ニ</tspan><tspan x="41" dy="18">キ</tspan></text>
<text class="c" style="animation-duration:5.2s;animation-delay:-9.3s" opacity="0.65" y="-300"><tspan x="72" dy="18">ウ</tspan><tspan x="72" dy="18">4</tspan><tspan x="72" dy="18">9</tspan><tspan x="72" dy="18">ク</tspan><tspan x="72" dy="18">ノ</tspan><tspan x="72" dy="18">カ</tspan><tspan x="72" dy="18">$</tspan><tspan x="72" dy="18">テ</tspan><tspan x="72" dy="18">&lt;</tspan><tspan x="72" dy="18">=</tspan><tspan x="72" dy="18">ネ</tspan><tspan x="72" dy="18">#</tspan></text>
<text class="c" style="animation-duration:8.0s;animation-delay:-3.0s" opacity="0.66" y="-300"><tspan x="106" dy="18">カ</tspan><tspan x="106" dy="18">ソ</tspan><tspan x="106" dy="18">キ</tspan><tspan x="106" dy="18">ノ</tspan><tspan x="106" dy="18">ツ</tspan><tspan x="106" dy="18">4</tspan><tspan x="106" dy="18">&lt;</tspan><tspan x="106" dy="18">ネ</tspan><tspan x="106" dy="18">サ</tspan><tspan x="106" dy="18">ネ</tspan><tspan x="106" dy="18">ヌ</tspan><tspan x="106" dy="18">セ</tspan></text>
<text class="c" style="animation-duration:8.9s;animation-delay:-1.9s" opacity="0.49" y="-300"><tspan x="129" dy="18">&lt;</tspan><tspan x="129" dy="18">サ</tspan><tspan x="129" dy="18">9</tspan><tspan x="129" dy="18">タ</tspan><tspan x="129" dy="18">サ</tspan><tspan x="129" dy="18">4</tspan><tspan x="129" dy="18">ノ</tspan><tspan x="129" dy="18">ツ</tspan><tspan x="129" dy="18">&lt;</tspan><tspan x="129" dy="18">$</tspan><tspan x="129" dy="18">ソ</tspan><tspan x="129" dy="18">ナ</tspan><tspan x="129" dy="18">エ</tspan><tspan x="129" dy="18">ソ</tspan></text>
<text class="c" style="animation-duration:5.5s;animation-delay:-4.4s" opacity="0.41" y="-300"><tspan x="152" dy="18">#</tspan><tspan x="152" dy="18">ナ</tspan><tspan x="152" dy="18">セ</tspan><tspan x="152" dy="18">&gt;</tspan><tspan x="152" dy="18">6</tspan><tspan x="152" dy="18">0</tspan><tspan x="152" dy="18">&gt;</tspan><tspan x="152" dy="18">4</tspan><tspan x="152" dy="18">コ</tspan><tspan x="152" dy="18">チ</tspan><tspan x="152" dy="18">ケ</tspan></text>
<text class="c" style="animation-duration:8.8s;animation-delay:-5.8s" opacity="0.29" y="-300"><tspan x="183" dy="18">*</tspan><tspan x="183" dy="18">0</tspan><tspan x="183" dy="18">ネ</tspan><tspan x="183" dy="18">ソ</tspan><tspan x="183" dy="18">ケ</tspan><tspan x="183" dy="18">7</tspan><tspan x="183" dy="18">6</tspan><tspan x="183" dy="18">カ</tspan><tspan x="183" dy="18">エ</tspan><tspan x="183" dy="18">ク</tspan><tspan x="183" dy="18">コ</tspan><tspan x="183" dy="18">&lt;</tspan><tspan x="183" dy="18">サ</tspan></text>
<text class="c" style="animation-duration:6.7s;animation-delay:-0.5s" opacity="0.78" y="-300"><tspan x="211" dy="18">4</tspan><tspan x="211" dy="18">8</tspan><tspan x="211" dy="18">チ</tspan><tspan x="211" dy="18">$</tspan><tspan x="211" dy="18">ア</tspan><tspan x="211" dy="18">ク</tspan><tspan x="211" dy="18">9</tspan><tspan x="211" dy="18">ツ</tspan><tspan x="211" dy="18">&gt;</tspan><tspan x="211" dy="18">ニ</tspan><tspan x="211" dy="18">ク</tspan><tspan x="211" dy="18">テ</tspan><tspan x="211" dy="18">2</tspan><tspan x="211" dy="18">サ</tspan></text>
<text class="c" style="animation-duration:9.5s;animation-delay:-4.0s" opacity="0.54" y="-300"><tspan x="237" dy="18">シ</tspan><tspan x="237" dy="18">7</tspan><tspan x="237" dy="18">キ</tspan><tspan x="237" dy="18">&lt;</tspan><tspan x="237" dy="18">ト</tspan><tspan x="237" dy="18">&lt;</tspan><tspan x="237" dy="18">7</tspan><tspan x="237" dy="18">+</tspan><tspan x="237" dy="18">ス</tspan><tspan x="237" dy="18">コ</tspan><tspan x="237" dy="18">ネ</tspan><tspan x="237" dy="18">サ</tspan><tspan x="237" dy="18">9</tspan><tspan x="237" dy="18">8</tspan></text>
<text class="c" style="animation-duration:8.0s;animation-delay:-0.5s" opacity="0.35" y="-300"><tspan x="260" dy="18">ト</tspan><tspan x="260" dy="18">タ</tspan><tspan x="260" dy="18">エ</tspan><tspan x="260" dy="18">タ</tspan><tspan x="260" dy="18">#</tspan><tspan x="260" dy="18">カ</tspan><tspan x="260" dy="18">カ</tspan><tspan x="260" dy="18">6</tspan><tspan x="260" dy="18">オ</tspan><tspan x="260" dy="18">9</tspan><tspan x="260" dy="18">ケ</tspan><tspan x="260" dy="18">ケ</tspan></text>
<text class="c" style="animation-duration:6.0s;animation-delay:-4.1s" opacity="0.39" y="-300"><tspan x="290" dy="18">+</tspan><tspan x="290" dy="18">2</tspan><tspan x="290" dy="18">セ</tspan><tspan x="290" dy="18">9</tspan><tspan x="290" dy="18">ス</tspan><tspan x="290" dy="18">ト</tspan><tspan x="290" dy="18">0</tspan><tspan x="290" dy="18">&gt;</tspan><tspan x="290" dy="18">ネ</tspan><tspan x="290" dy="18">3</tspan><tspan x="290" dy="18">8</tspan><tspan x="290" dy="18">3</tspan><tspan x="290" dy="18">ク</tspan><tspan x="290" dy="18">タ</tspan><tspan x="290" dy="18">ソ</tspan><tspan x="290" dy="18">オ</tspan></text>
<text class="c" style="animation-duration:5.7s;animation-delay:-5.1s" opacity="0.57" y="-300"><tspan x="315" dy="18">オ</tspan><tspan x="315" dy="18">&lt;</tspan><tspan x="315" dy="18">エ</tspan><tspan x="315" dy="18">ソ</tspan><tspan x="315" dy="18">オ</tspan><tspan x="315" dy="18">ウ</tspan><tspan x="315" dy="18">ニ</tspan><tspan x="315" dy="18">オ</tspan><tspan x="315" dy="18">7</tspan><tspan x="315" dy="18">タ</tspan></text>
<text class="c" style="animation-duration:8.0s;animation-delay:-0.2s" opacity="0.31" y="-300"><tspan x="348" dy="18">#</tspan><tspan x="348" dy="18">5</tspan><tspan x="348" dy="18">タ</tspan><tspan x="348" dy="18">5</tspan><tspan x="348" dy="18">1</tspan><tspan x="348" dy="18">ス</tspan><tspan x="348" dy="18">キ</tspan><tspan x="348" dy="18">キ</tspan><tspan x="348" dy="18">2</tspan><tspan x="348" dy="18">ヌ</tspan><tspan x="348" dy="18">2</tspan><tspan x="348" dy="18">1</tspan><tspan x="348" dy="18">4</tspan><tspan x="348" dy="18">エ</tspan></text>
<text class="c" style="animation-duration:8.8s;animation-delay:-1.4s" opacity="0.31" y="-300"><tspan x="376" dy="18">ニ</tspan><tspan x="376" dy="18">キ</tspan><tspan x="376" dy="18">タ</tspan><tspan x="376" dy="18">ス</tspan><tspan x="376" dy="18">ス</tspan><tspan x="376" dy="18">9</tspan><tspan x="376" dy="18">3</tspan><tspan x="376" dy="18">ケ</tspan><tspan x="376" dy="18">2</tspan><tspan x="376" dy="18">シ</tspan><tspan x="376" dy="18">ツ</tspan><tspan x="376" dy="18">4</tspan><tspan x="376" dy="18">タ</tspan><tspan x="376" dy="18">オ</tspan><tspan x="376" dy="18">3</tspan></text>
<text class="c" style="animation-duration:5.6s;animation-delay:-2.2s" opacity="0.52" y="-300"><tspan x="408" dy="18">ア</tspan><tspan x="408" dy="18">カ</tspan><tspan x="408" dy="18">タ</tspan><tspan x="408" dy="18">サ</tspan><tspan x="408" dy="18">1</tspan><tspan x="408" dy="18">6</tspan><tspan x="408" dy="18">5</tspan><tspan x="408" dy="18">セ</tspan><tspan x="408" dy="18">0</tspan><tspan x="408" dy="18">エ</tspan><tspan x="408" dy="18">サ</tspan><tspan x="408" dy="18">ノ</tspan><tspan x="408" dy="18">ア</tspan><tspan x="408" dy="18">ノ</tspan></text>
<text class="c" style="animation-duration:7.0s;animation-delay:-1.5s" opacity="0.34" y="-300"><tspan x="436" dy="18">$</tspan><tspan x="436" dy="18">6</tspan><tspan x="436" dy="18">コ</tspan><tspan x="436" dy="18">ス</tspan><tspan x="436" dy="18">テ</tspan><tspan x="436" dy="18">セ</tspan><tspan x="436" dy="18">エ</tspan><tspan x="436" dy="18">*</tspan><tspan x="436" dy="18">9</tspan><tspan x="436" dy="18">エ</tspan><tspan x="436" dy="18">ナ</tspan><tspan x="436" dy="18">エ</tspan><tspan x="436" dy="18">エ</tspan><tspan x="436" dy="18">*</tspan><tspan x="436" dy="18">5</tspan></text>
<text class="c" style="animation-duration:7.6s;animation-delay:-3.8s" opacity="0.5" y="-300"><tspan x="466" dy="18">シ</tspan><tspan x="466" dy="18">オ</tspan><tspan x="466" dy="18">+</tspan><tspan x="466" dy="18">オ</tspan><tspan x="466" dy="18">タ</tspan><tspan x="466" dy="18">0</tspan><tspan x="466" dy="18">ク</tspan><tspan x="466" dy="18">#</tspan><tspan x="466" dy="18">タ</tspan><tspan x="466" dy="18">*</tspan></text>
<text class="c" style="animation-duration:4.1s;animation-delay:-3.8s" opacity="0.59" y="-300"><tspan x="497" dy="18">8</tspan><tspan x="497" dy="18">ナ</tspan><tspan x="497" dy="18">チ</tspan><tspan x="497" dy="18">セ</tspan><tspan x="497" dy="18">ナ</tspan><tspan x="497" dy="18">タ</tspan><tspan x="497" dy="18">チ</tspan><tspan x="497" dy="18">0</tspan><tspan x="497" dy="18">ケ</tspan><tspan x="497" dy="18">&gt;</tspan><tspan x="497" dy="18">ト</tspan><tspan x="497" dy="18">4</tspan><tspan x="497" dy="18">ナ</tspan><tspan x="497" dy="18">オ</tspan></text>
<text class="c" style="animation-duration:4.9s;animation-delay:-1.7s" opacity="0.67" y="-300"><tspan x="520" dy="18">9</tspan><tspan x="520" dy="18">セ</tspan><tspan x="520" dy="18">7</tspan><tspan x="520" dy="18">チ</tspan><tspan x="520" dy="18">ケ</tspan><tspan x="520" dy="18">ヌ</tspan><tspan x="520" dy="18">オ</tspan><tspan x="520" dy="18">タ</tspan><tspan x="520" dy="18">ネ</tspan><tspan x="520" dy="18">テ</tspan></text>
<text class="c" style="animation-duration:8.3s;animation-delay:-8.0s" opacity="0.63" y="-300"><tspan x="551" dy="18">&gt;</tspan><tspan x="551" dy="18">8</tspan><tspan x="551" dy="18">ア</tspan><tspan x="551" dy="18">$</tspan><tspan x="551" dy="18">ト</tspan><tspan x="551" dy="18">キ</tspan><tspan x="551" dy="18">ケ</tspan><tspan x="551" dy="18">チ</tspan><tspan x="551" dy="18">ク</tspan><tspan x="551" dy="18">キ</tspan><tspan x="551" dy="18">$</tspan><tspan x="551" dy="18">コ</tspan><tspan x="551" dy="18">ツ</tspan><tspan x="551" dy="18">テ</tspan><tspan x="551" dy="18">+</tspan><tspan x="551" dy="18">セ</tspan></text>
<text class="c" style="animation-duration:8.4s;animation-delay:-4.5s" opacity="0.51" y="-300"><tspan x="577" dy="18">6</tspan><tspan x="577" dy="18">チ</tspan><tspan x="577" dy="18">エ</tspan><tspan x="577" dy="18">カ</tspan><tspan x="577" dy="18">&lt;</tspan><tspan x="577" dy="18">2</tspan><tspan x="577" dy="18">ツ</tspan><tspan x="577" dy="18">ウ</tspan><tspan x="577" dy="18">ア</tspan><tspan x="577" dy="18">ニ</tspan><tspan x="577" dy="18">ケ</tspan><tspan x="577" dy="18">&lt;</tspan><tspan x="577" dy="18">チ</tspan><tspan x="577" dy="18">サ</tspan></text>
<text class="c" style="animation-duration:4.3s;animation-delay:-6.4s" opacity="0.81" y="-300"><tspan x="599" dy="18">オ</tspan><tspan x="599" dy="18">コ</tspan><tspan x="599" dy="18">9</tspan><tspan x="599" dy="18">ウ</tspan><tspan x="599" dy="18">ネ</tspan><tspan x="599" dy="18">*</tspan><tspan x="599" dy="18">$</tspan><tspan x="599" dy="18">コ</tspan><tspan x="599" dy="18">2</tspan><tspan x="599" dy="18">ケ</tspan></text>
<text class="c" style="animation-duration:4.1s;animation-delay:-2.6s" opacity="0.45" y="-300"><tspan x="621" dy="18">セ</tspan><tspan x="621" dy="18">タ</tspan><tspan x="621" dy="18">キ</tspan><tspan x="621" dy="18">ヌ</tspan><tspan x="621" dy="18">$</tspan><tspan x="621" dy="18">1</tspan><tspan x="621" dy="18">=</tspan><tspan x="621" dy="18">コ</tspan><tspan x="621" dy="18">タ</tspan><tspan x="621" dy="18">サ</tspan><tspan x="621" dy="18">シ</tspan><tspan x="621" dy="18">1</tspan></text>
<text class="c" style="animation-duration:6.4s;animation-delay:-7.2s" opacity="0.29" y="-300"><tspan x="649" dy="18">タ</tspan><tspan x="649" dy="18">ツ</tspan><tspan x="649" dy="18">サ</tspan><tspan x="649" dy="18">キ</tspan><tspan x="649" dy="18">ノ</tspan><tspan x="649" dy="18">ウ</tspan><tspan x="649" dy="18">5</tspan><tspan x="649" dy="18">ソ</tspan><tspan x="649" dy="18">ス</tspan><tspan x="649" dy="18">4</tspan><tspan x="649" dy="18">ヌ</tspan><tspan x="649" dy="18">ト</tspan><tspan x="649" dy="18">ソ</tspan><tspan x="649" dy="18">ソ</tspan><tspan x="649" dy="18">イ</tspan><tspan x="649" dy="18">ス</tspan></text>
<text class="c" style="animation-duration:4.2s;animation-delay:-4.0s" opacity="0.46" y="-300"><tspan x="683" dy="18">ヌ</tspan><tspan x="683" dy="18">&gt;</tspan><tspan x="683" dy="18">7</tspan><tspan x="683" dy="18">0</tspan><tspan x="683" dy="18">9</tspan><tspan x="683" dy="18">ニ</tspan><tspan x="683" dy="18">イ</tspan><tspan x="683" dy="18">ク</tspan><tspan x="683" dy="18">チ</tspan><tspan x="683" dy="18">シ</tspan><tspan x="683" dy="18">*</tspan><tspan x="683" dy="18">チ</tspan></text>
<text class="c" style="animation-duration:9.6s;animation-delay:-4.6s" opacity="0.68" y="-300"><tspan x="717" dy="18">2</tspan><tspan x="717" dy="18">+</tspan><tspan x="717" dy="18">7</tspan><tspan x="717" dy="18">ク</tspan><tspan x="717" dy="18">ノ</tspan><tspan x="717" dy="18">#</tspan><tspan x="717" dy="18">ス</tspan><tspan x="717" dy="18">チ</tspan><tspan x="717" dy="18">ウ</tspan><tspan x="717" dy="18">2</tspan><tspan x="717" dy="18">ア</tspan><tspan x="717" dy="18">8</tspan></text>
<text class="c" style="animation-duration:7.3s;animation-delay:-8.1s" opacity="0.65" y="-300"><tspan x="750" dy="18">ス</tspan><tspan x="750" dy="18">ネ</tspan><tspan x="750" dy="18">2</tspan><tspan x="750" dy="18">オ</tspan><tspan x="750" dy="18">ニ</tspan><tspan x="750" dy="18">=</tspan><tspan x="750" dy="18">ナ</tspan><tspan x="750" dy="18">ク</tspan><tspan x="750" dy="18">ト</tspan><tspan x="750" dy="18">7</tspan><tspan x="750" dy="18">ト</tspan><tspan x="750" dy="18">1</tspan><tspan x="750" dy="18">ナ</tspan><tspan x="750" dy="18">0</tspan><tspan x="750" dy="18">テ</tspan></text>
<text class="c" style="animation-duration:6.8s;animation-delay:-5.6s" opacity="0.38" y="-300"><tspan x="778" dy="18">シ</tspan><tspan x="778" dy="18">=</tspan><tspan x="778" dy="18">#</tspan><tspan x="778" dy="18">ト</tspan><tspan x="778" dy="18">0</tspan><tspan x="778" dy="18">$</tspan><tspan x="778" dy="18">ア</tspan><tspan x="778" dy="18">ト</tspan><tspan x="778" dy="18">テ</tspan><tspan x="778" dy="18">セ</tspan><tspan x="778" dy="18">2</tspan><tspan x="778" dy="18">*</tspan><tspan x="778" dy="18">+</tspan><tspan x="778" dy="18">&gt;</tspan><tspan x="778" dy="18">ナ</tspan></text>
<text class="c" style="animation-duration:9.9s;animation-delay:-3.9s" opacity="0.71" y="-300"><tspan x="807" dy="18">サ</tspan><tspan x="807" dy="18">カ</tspan><tspan x="807" dy="18">テ</tspan><tspan x="807" dy="18">7</tspan><tspan x="807" dy="18">&lt;</tspan><tspan x="807" dy="18">=</tspan><tspan x="807" dy="18">ニ</tspan><tspan x="807" dy="18">カ</tspan><tspan x="807" dy="18">タ</tspan><tspan x="807" dy="18">ト</tspan><tspan x="807" dy="18">ソ</tspan><tspan x="807" dy="18">ス</tspan><tspan x="807" dy="18">コ</tspan><tspan x="807" dy="18">イ</tspan><tspan x="807" dy="18">ウ</tspan><tspan x="807" dy="18">タ</tspan></text>
<text class="c" style="animation-duration:5.1s;animation-delay:-0.4s" opacity="0.56" y="-300"><tspan x="836" dy="18">&lt;</tspan><tspan x="836" dy="18">#</tspan><tspan x="836" dy="18">ス</tspan><tspan x="836" dy="18">ノ</tspan><tspan x="836" dy="18">6</tspan><tspan x="836" dy="18">0</tspan><tspan x="836" dy="18">タ</tspan><tspan x="836" dy="18">コ</tspan><tspan x="836" dy="18">&gt;</tspan><tspan x="836" dy="18">ア</tspan><tspan x="836" dy="18">キ</tspan><tspan x="836" dy="18">2</tspan><tspan x="836" dy="18">ソ</tspan></text>
<text class="c" style="animation-duration:6.7s;animation-delay:-8.4s" opacity="0.77" y="-300"><tspan x="858" dy="18">タ</tspan><tspan x="858" dy="18">ク</tspan><tspan x="858" dy="18">4</tspan><tspan x="858" dy="18">ケ</tspan><tspan x="858" dy="18">4</tspan><tspan x="858" dy="18">8</tspan><tspan x="858" dy="18">$</tspan><tspan x="858" dy="18">+</tspan><tspan x="858" dy="18">ナ</tspan><tspan x="858" dy="18">3</tspan><tspan x="858" dy="18">=</tspan><tspan x="858" dy="18">7</tspan><tspan x="858" dy="18">2</tspan><tspan x="858" dy="18">$</tspan></text>
<text class="c" style="animation-duration:5.6s;animation-delay:-6.8s" opacity="0.57" y="-300"><tspan x="887" dy="18">タ</tspan><tspan x="887" dy="18">&lt;</tspan><tspan x="887" dy="18">ツ</tspan><tspan x="887" dy="18">8</tspan><tspan x="887" dy="18">6</tspan><tspan x="887" dy="18">&lt;</tspan><tspan x="887" dy="18">タ</tspan><tspan x="887" dy="18">ツ</tspan><tspan x="887" dy="18">3</tspan><tspan x="887" dy="18">オ</tspan><tspan x="887" dy="18">テ</tspan><tspan x="887" dy="18">タ</tspan></text>
<text class="c" style="animation-duration:4.4s;animation-delay:-1.7s" opacity="0.48" y="-300"><tspan x="911" dy="18">ソ</tspan><tspan x="911" dy="18">ノ</tspan><tspan x="911" dy="18">コ</tspan><tspan x="911" dy="18">セ</tspan><tspan x="911" dy="18">オ</tspan><tspan x="911" dy="18">1</tspan><tspan x="911" dy="18">1</tspan><tspan x="911" dy="18">ニ</tspan><tspan x="911" dy="18">9</tspan><tspan x="911" dy="18">4</tspan><tspan x="911" dy="18">1</tspan></text>
<text class="c" style="animation-duration:5.3s;animation-delay:-5.6s" opacity="0.27" y="-300"><tspan x="945" dy="18">イ</tspan><tspan x="945" dy="18">#</tspan><tspan x="945" dy="18">ノ</tspan><tspan x="945" dy="18">5</tspan><tspan x="945" dy="18">ア</tspan><tspan x="945" dy="18">ヌ</tspan><tspan x="945" dy="18">ト</tspan><tspan x="945" dy="18">ノ</tspan><tspan x="945" dy="18">1</tspan><tspan x="945" dy="18">9</tspan><tspan x="945" dy="18">9</tspan><tspan x="945" dy="18">+</tspan><tspan x="945" dy="18">ソ</tspan><tspan x="945" dy="18">6</tspan></text>
<text class="c" style="animation-duration:9.2s;animation-delay:-8.2s" opacity="0.41" y="-300"><tspan x="972" dy="18">0</tspan><tspan x="972" dy="18">サ</tspan><tspan x="972" dy="18">4</tspan><tspan x="972" dy="18">ケ</tspan><tspan x="972" dy="18">=</tspan><tspan x="972" dy="18">9</tspan><tspan x="972" dy="18">イ</tspan><tspan x="972" dy="18">0</tspan><tspan x="972" dy="18">*</tspan><tspan x="972" dy="18">#</tspan><tspan x="972" dy="18">イ</tspan><tspan x="972" dy="18">カ</tspan><tspan x="972" dy="18">&gt;</tspan><tspan x="972" dy="18">2</tspan><tspan x="972" dy="18">ケ</tspan></text>
<text class="c" style="animation-duration:4.3s;animation-delay:-0.5s" opacity="0.38" y="-300"><tspan x="999" dy="18">4</tspan><tspan x="999" dy="18">ナ</tspan><tspan x="999" dy="18">ニ</tspan><tspan x="999" dy="18">ノ</tspan><tspan x="999" dy="18">ツ</tspan><tspan x="999" dy="18">1</tspan><tspan x="999" dy="18">チ</tspan><tspan x="999" dy="18">カ</tspan><tspan x="999" dy="18">5</tspan><tspan x="999" dy="18">イ</tspan><tspan x="999" dy="18">9</tspan></text>
<rect x="200" y="70" width="600" height="120" rx="10" fill="#000000" opacity="0.82"/>
<rect x="200" y="70" width="600" height="120" rx="10" fill="none" stroke="#39d353" stroke-width="1.5" opacity="0.9"/>
<circle cx="222" cy="88" r="5" fill="#ff5f56"/>
<circle cx="240" cy="88" r="5" fill="#ffbd2e"/>
<circle cx="258" cy="88" r="5" fill="#27c93f"/>
<text x="500" y="140" text-anchor="middle" class="name" font-size="38" font-weight="bold" fill="#39FF14" style="text-shadow:0 0 12px #39FF14">TECHNOVIZOR</text>
<text x="500" y="172" text-anchor="middle" font-size="16" fill="#39d353">&gt; Iļja Ponomarovs — full-stack developer<tspan class="cursor">█</tspan></text>
</svg>